<?xml version="1.0" encoding="UTF-8" standalone="no"?>
<!DOCTYPE svg PUBLIC "-//W3C//DTD SVG 1.1//EN"
 "http://www.w3.org/Graphics/SVG/1.1/DTD/svg11.dtd">
<!-- Generated by graphviz version 2.43.0 (0)
 -->
<!-- Title: database_schema Pages: 1 -->
<svg width="1504pt" height="1685pt"
 viewBox="0.00 0.00 722.00 809.00" xmlns="http://www.w3.org/2000/svg" xmlns:xlink="http://www.w3.org/1999/xlink">
<g id="graph0" class="graph" transform="scale(2.08 2.08) rotate(0) translate(36 773)">
<title>database_schema</title>
<polygon fill="white" stroke="transparent" points="-36,36 -36,-773 686,-773 686,36 -36,36"/>
<g id="clust1" class="cluster">
<title>cluster_bronze</title>
<path fill="#fff5f5" stroke="#c53030" stroke-width="1.5" d="M20,-368.5C20,-368.5 156,-368.5 156,-368.5 162,-368.5 168,-374.5 168,-380.5 168,-380.5 168,-440.5 168,-440.5 168,-446.5 162,-452.5 156,-452.5 156,-452.5 20,-452.5 20,-452.5 14,-452.5 8,-446.5 8,-440.5 8,-440.5 8,-380.5 8,-380.5 8,-374.5 14,-368.5 20,-368.5"/>
<text text-anchor="start" x="17" y="-441.5" font-family="Helvetica,sans-Serif" font-weight="bold" font-size="10.00">Bronze — bronze schema</text>
<text text-anchor="start" x="18.5" y="-433.1" font-family="Helvetica,sans-Serif" font-size="8.00" fill="#718096">Raw signals from PLC (immutable)</text>
</g>
<g id="clust2" class="cluster">
<title>cluster_silver</title>
<path fill="#ebf8ff" stroke="#2b6cb0" stroke-width="1.5" d="M231,-253C231,-253 501,-253 501,-253 507,-253 513,-259 513,-265 513,-265 513,-556 513,-556 513,-562 507,-568 501,-568 501,-568 231,-568 231,-568 225,-568 219,-562 219,-556 219,-556 219,-265 219,-265 219,-259 225,-253 231,-253"/>
<text text-anchor="start" x="301" y="-557" font-family="Helvetica,sans-Serif" font-weight="bold" font-size="10.00">Silver — silver schema</text>
<text text-anchor="start" x="308.5" y="-548.6" font-family="Helvetica,sans-Serif" font-size="8.00" fill="#718096">Fully cleaned (notebook 01)</text>
</g>
<g id="clust3" class="cluster">
<title>cluster_gold</title>
<path fill="#f0fff4" stroke="#276749" stroke-width="1.5" d="M191,-8C191,-8 541,-8 541,-8 547,-8 553,-14 553,-20 553,-20 553,-185 553,-185 553,-191 547,-197 541,-197 541,-197 191,-197 191,-197 185,-197 179,-191 179,-185 179,-185 179,-20 179,-20 179,-14 185,-8 191,-8"/>
<text text-anchor="start" x="310.5" y="-186" font-family="Helvetica,sans-Serif" font-weight="bold" font-size="10.00">Gold — parquet file</text>
<text text-anchor="start" x="317.5" y="-177.6" font-family="Helvetica,sans-Serif" font-size="8.00" fill="#718096">Enriched (notebook 02)</text>
</g>
<!-- raw_lifetime -->
<g id="node1" class="node">
<title>raw_lifetime</title>
<polygon fill="white" stroke="transparent" points="0,-632 0,-737 204,-737 204,-632 0,-632"/>
<polygon fill="#c53030" stroke="transparent" points="1,-714.5 1,-735.5 203,-735.5 203,-714.5 1,-714.5"/>
<text text-anchor="start" x="66.5" y="-723.5" font-family="Helvetica,sans-Serif" font-weight="bold" font-size="10.00" fill="white">raw_lifetime</text>
<text text-anchor="start" x="6" y="-702.1" font-family="Helvetica,sans-Serif" font-size="8.00">IDX</text>
<text text-anchor="start" x="30" y="-702.5" font-family="Helvetica,sans-Serif" font-weight="bold" font-size="10.00">timestamp</text>
<text text-anchor="start" x="101" y="-701.5" font-family="Helvetica,sans-Serif" font-size="10.00" fill="#718096">TIMESTAMPTZ</text>
<text text-anchor="start" x="6" y="-681.1" font-family="Helvetica,sans-Serif" font-size="8.00">IDX</text>
<text text-anchor="start" x="30" y="-681.5" font-family="Helvetica,sans-Serif" font-weight="bold" font-size="10.00">signal</text>
<text text-anchor="start" x="101" y="-680.5" font-family="Helvetica,sans-Serif" font-size="10.00" fill="#718096">TEXT</text>
<text text-anchor="start" x="6" y="-659.5" font-family="Helvetica,sans-Serif" font-size="10.00"> </text>
<text text-anchor="start" x="30" y="-659.5" font-family="Helvetica,sans-Serif" font-size="10.00">value</text>
<text text-anchor="start" x="101" y="-659.5" font-family="Helvetica,sans-Serif" font-size="10.00" fill="#718096">DOUBLE PRECISION</text>
<polygon fill="#fff5f5" stroke="transparent" points="1,-632.5 1,-651.5 203,-651.5 203,-632.5 1,-632.5"/>
<text text-anchor="start" x="6" y="-640.1" font-family="Helvetica,sans-Serif" font-size="8.00" fill="#718096">~1,048,000 rows</text>
<polygon fill="none" stroke="#c53030" points="0,-632 0,-737 204,-737 204,-632 0,-632"/>
</g>
<!-- v_pieces -->
<g id="node3" class="node">
<title>v_pieces</title>
<polygon fill="white" stroke="transparent" points="16,-376.5 16,-418.5 160,-418.5 160,-376.5 16,-376.5"/>
<polygon fill="#a0aec0" stroke="transparent" points="17,-396.5 17,-417.5 159,-417.5 159,-396.5 17,-396.5"/>
<text text-anchor="start" x="45" y="-405.5" font-family="Helvetica,sans-Serif" font-weight="bold" font-size="10.00" fill="white">v_pieces</text>
<text text-anchor="start" x="94" y="-405.5" font-family="Helvetica,sans-Serif" font-size="10.00" fill="white"> (VIEW)</text>
<text text-anchor="start" x="22" y="-385.1" font-family="Helvetica,sans-Serif" font-size="8.00" fill="#718096">Pivot of bronze (~179,600 rows)</text>
<polygon fill="none" stroke="#a0aec0" stroke-dasharray="5,2" points="16,-376.5 16,-418.5 160,-418.5 160,-376.5 16,-376.5"/>
</g>
<!-- raw_lifetime&#45;&gt;v_pieces -->
<g id="edge1" class="edge">
<title>raw_lifetime&#45;&gt;v_pieces</title>
<path fill="none" stroke="#a0aec0" stroke-dasharray="5,2" d="M99.46,-631.89C96.49,-571.29 91.66,-473.05 89.34,-425.71"/>
<polygon fill="#a0aec0" stroke="#a0aec0" points="91.78,-425.44 88.99,-418.56 86.88,-425.68 91.78,-425.44"/>
</g>
<!-- clean_pieces -->
<g id="node4" class="node">
<title>clean_pieces</title>
<polygon fill="white" stroke="transparent" points="227.5,-261 227.5,-534 504.5,-534 504.5,-261 227.5,-261"/>
<polygon fill="#2b6cb0" stroke="transparent" points="229,-511.5 229,-532.5 504,-532.5 504,-511.5 229,-511.5"/>
<text text-anchor="start" x="313" y="-520.5" font-family="Helvetica,sans-Serif" font-weight="bold" font-size="10.00" fill="white">silver.clean_pieces</text>
<text text-anchor="start" x="234" y="-499.1" font-family="Helvetica,sans-Serif" font-size="8.00">UNQ</text>
<text text-anchor="start" x="263" y="-499.5" font-family="Helvetica,sans-Serif" font-weight="bold" font-size="10.00">timestamp</text>
<text text-anchor="start" x="402" y="-498.5" font-family="Helvetica,sans-Serif" font-size="10.00" fill="#718096">TIMESTAMPTZ</text>
<text text-anchor="start" x="234" y="-477.5" font-family="Helvetica,sans-Serif" font-size="10.00"> </text>
<text text-anchor="start" x="263" y="-477.5" font-family="Helvetica,sans-Serif" font-size="10.00">piece_id</text>
<text text-anchor="start" x="402" y="-477.5" font-family="Helvetica,sans-Serif" font-size="10.00" fill="#718096">TEXT</text>
<text text-anchor="start" x="234" y="-457.1" font-family="Helvetica,sans-Serif" font-size="8.00">IDX</text>
<text text-anchor="start" x="263" y="-456.5" font-family="Helvetica,sans-Serif" font-size="10.00">die_matrix</text>
<text text-anchor="start" x="402" y="-456.5" font-family="Helvetica,sans-Serif" font-size="10.00" fill="#718096">INTEGER</text>
<text text-anchor="start" x="234" y="-435.5" font-family="Helvetica,sans-Serif" font-size="10.00"> </text>
<text text-anchor="start" x="263" y="-435.5" font-family="Helvetica,sans-Serif" font-size="10.00">lifetime_2nd_strike_s</text>
<text text-anchor="start" x="402" y="-435.5" font-family="Helvetica,sans-Serif" font-size="10.00" fill="#718096">DOUBLE PRECISION</text>
<text text-anchor="start" x="234" y="-414.5" font-family="Helvetica,sans-Serif" font-size="10.00"> </text>
<text text-anchor="start" x="263" y="-414.5" font-family="Helvetica,sans-Serif" font-size="10.00">lifetime_3rd_strike_s</text>
<text text-anchor="start" x="402" y="-414.5" font-family="Helvetica,sans-Serif" font-size="10.00" fill="#718096">DOUBLE PRECISION</text>
<text text-anchor="start" x="234" y="-393.5" font-family="Helvetica,sans-Serif" font-size="10.00"> </text>
<text text-anchor="start" x="263" y="-393.5" font-family="Helvetica,sans-Serif" font-size="10.00">lifetime_4th_strike_s</text>
<text text-anchor="start" x="402" y="-393.5" font-family="Helvetica,sans-Serif" font-size="10.00" fill="#718096">DOUBLE PRECISION</text>
<text text-anchor="start" x="234" y="-372.5" font-family="Helvetica,sans-Serif" font-size="10.00"> </text>
<text text-anchor="start" x="263" y="-372.5" font-family="Helvetica,sans-Serif" font-size="10.00">lifetime_auxiliary_press_s</text>
<text text-anchor="start" x="402" y="-372.5" font-family="Helvetica,sans-Serif" font-size="10.00" fill="#718096">DOUBLE PRECISION</text>
<text text-anchor="start" x="234" y="-351.5" font-family="Helvetica,sans-Serif" font-size="10.00"> </text>
<text text-anchor="start" x="263" y="-351.5" font-family="Helvetica,sans-Serif" font-size="10.00">lifetime_bath_s</text>
<text text-anchor="start" x="402" y="-351.5" font-family="Helvetica,sans-Serif" font-size="10.00" fill="#718096">DOUBLE PRECISION</text>
<text text-anchor="start" x="234" y="-330.5" font-family="Helvetica,sans-Serif" font-size="10.00"> </text>
<text text-anchor="start" x="263" y="-330.5" font-family="Helvetica,sans-Serif" font-size="10.00">lifetime_general_s</text>
<text text-anchor="start" x="402" y="-330.5" font-family="Helvetica,sans-Serif" font-size="10.00" fill="#718096">DOUBLE PRECISION</text>
<text text-anchor="start" x="234" y="-309.5" font-family="Helvetica,sans-Serif" font-size="10.00"> </text>
<text text-anchor="start" x="263" y="-309.5" font-family="Helvetica,sans-Serif" font-size="10.00">oee_cycle_time_s</text>
<text text-anchor="start" x="402" y="-309.5" font-family="Helvetica,sans-Serif" font-size="10.00" fill="#718096">DOUBLE PRECISION</text>
<text text-anchor="start" x="234" y="-289.1" font-family="Helvetica,sans-Serif" font-size="8.00">IDX</text>
<text text-anchor="start" x="263" y="-288.5" font-family="Helvetica,sans-Serif" font-size="10.00">processed_at</text>
<text text-anchor="start" x="402" y="-288.5" font-family="Helvetica,sans-Serif" font-size="10.00" fill="#718096">TIMESTAMPTZ</text>
<polygon fill="#ebf8ff" stroke="transparent" points="229,-261.5 229,-280.5 504,-280.5 504,-261.5 229,-261.5"/>
<text text-anchor="start" x="234" y="-269.1" font-family="Helvetica,sans-Serif" font-size="8.00" fill="#718096">~169,000 rows (1 per piece)</text>
<polygon fill="none" stroke="#2b6cb0" points="227.5,-261 227.5,-534 504.5,-534 504.5,-261 227.5,-261"/>
</g>
<!-- raw_lifetime&#45;&gt;clean_pieces -->
<g id="edge3" class="edge">
<title>raw_lifetime&#45;&gt;clean_pieces</title>
<path fill="none" stroke="#2b6cb0" stroke-width="1.5" d="M149.81,-631.89C173.57,-606.24 203.58,-573.84 233.61,-541.42"/>
<polygon fill="#2b6cb0" stroke="#2b6cb0" stroke-width="1.5" points="236.19,-543.78 240.42,-534.07 231.06,-539.03 236.19,-543.78"/>
<text text-anchor="middle" x="242.5" y="-588.8" font-family="Helvetica,sans-Serif" font-size="9.00" fill="#2b6cb0"> &#160;01_bronze_to_silver</text>
<text text-anchor="middle" x="242.5" y="-578.8" font-family="Helvetica,sans-Serif" font-size="9.00" fill="#2b6cb0"> &#160;(incremental)</text>
</g>
<!-- raw_piece_info -->
<g id="node2" class="node">
<title>raw_piece_info</title>
<polygon fill="white" stroke="transparent" points="272.5,-632 272.5,-737 449.5,-737 449.5,-632 272.5,-632"/>
<polygon fill="#c53030" stroke="transparent" points="274,-714.5 274,-735.5 449,-735.5 449,-714.5 274,-714.5"/>
<text text-anchor="start" x="319" y="-723.5" font-family="Helvetica,sans-Serif" font-weight="bold" font-size="10.00" fill="white">raw_piece_info</text>
<text text-anchor="start" x="279" y="-702.1" font-family="Helvetica,sans-Serif" font-size="8.00">IDX</text>
<text text-anchor="start" x="303" y="-702.5" font-family="Helvetica,sans-Serif" font-weight="bold" font-size="10.00">timestamp</text>
<text text-anchor="start" x="374" y="-701.5" font-family="Helvetica,sans-Serif" font-size="10.00" fill="#718096">TIMESTAMPTZ</text>
<text text-anchor="start" x="279" y="-681.1" font-family="Helvetica,sans-Serif" font-size="8.00">IDX</text>
<text text-anchor="start" x="303" y="-681.5" font-family="Helvetica,sans-Serif" font-weight="bold" font-size="10.00">signal</text>
<text text-anchor="start" x="374" y="-680.5" font-family="Helvetica,sans-Serif" font-size="10.00" fill="#718096">TEXT</text>
<text text-anchor="start" x="279" y="-659.5" font-family="Helvetica,sans-Serif" font-size="10.00"> </text>
<text text-anchor="start" x="303" y="-659.5" font-family="Helvetica,sans-Serif" font-size="10.00">value</text>
<text text-anchor="start" x="374" y="-659.5" font-family="Helvetica,sans-Serif" font-size="10.00" fill="#718096">TEXT</text>
<polygon fill="#fff5f5" stroke="transparent" points="274,-632.5 274,-651.5 449,-651.5 449,-632.5 274,-632.5"/>
<text text-anchor="start" x="279" y="-640.1" font-family="Helvetica,sans-Serif" font-size="8.00" fill="#718096">~360,000 rows</text>
<polygon fill="none" stroke="#c53030" points="272.5,-632 272.5,-737 449.5,-737 449.5,-632 272.5,-632"/>
</g>
<!-- raw_piece_info&#45;&gt;v_pieces -->
<g id="edge2" class="edge">
<title>raw_piece_info&#45;&gt;v_pieces</title>
<path fill="none" stroke="#a0aec0" stroke-dasharray="5,2" d="M330.62,-631.77C315.66,-610.99 295.72,-588.93 272,-576 245.67,-561.65 230.68,-583.49 205,-568 149.8,-534.71 114.32,-464.25 98.17,-425.48"/>
<polygon fill="#a0aec0" stroke="#a0aec0" points="100.28,-424.18 95.37,-418.62 95.75,-426.03 100.28,-424.18"/>
</g>
<!-- raw_piece_info&#45;&gt;clean_pieces -->
<g id="edge4" class="edge">
<title>raw_piece_info&#45;&gt;clean_pieces</title>
<path fill="none" stroke="#2b6cb0" stroke-width="1.5" d="M361.91,-631.89C362.34,-606.99 362.89,-575.74 363.44,-544.28"/>
<polygon fill="#2b6cb0" stroke="#2b6cb0" stroke-width="1.5" points="366.95,-544.13 363.62,-534.07 359.95,-544.01 366.95,-544.13"/>
</g>
<!-- gold_parquet -->
<g id="node5" class="node">
<title>gold_parquet</title>
<polygon fill="white" stroke="transparent" points="187,-16 187,-163 545,-163 545,-16 187,-16"/>
<polygon fill="#276749" stroke="transparent" points="188,-140.5 188,-161.5 544,-161.5 544,-140.5 188,-140.5"/>
<text text-anchor="start" x="323" y="-149.5" font-family="Helvetica,sans-Serif" font-weight="bold" font-size="10.00" fill="white">pieces.parquet</text>
<text text-anchor="start" x="193" y="-127.5" font-family="Helvetica,sans-Serif" font-size="10.00">timestamp, piece_id, die_matrix</text>
<text text-anchor="start" x="462" y="-128.1" font-family="Helvetica,sans-Serif" font-size="8.00" fill="#718096">identification</text>
<text text-anchor="start" x="193" y="-106.5" font-family="Helvetica,sans-Serif" font-size="10.00">lifetime_{2nd,3rd,4th}_strike_s, aux_press_s, bath_s</text>
<text text-anchor="start" x="462" y="-107.1" font-family="Helvetica,sans-Serif" font-size="8.00" fill="#718096">cumulative (s)</text>
<text text-anchor="start" x="193" y="-85.5" font-family="Helvetica,sans-Serif" font-size="10.00">oee_cycle_time_s</text>
<text text-anchor="start" x="462" y="-86.1" font-family="Helvetica,sans-Serif" font-size="8.00" fill="#718096">throughput (s)</text>
<text text-anchor="start" x="193" y="-64.5" font-family="Helvetica,sans-Serif" font-size="10.00">partial_*_s (5 cols)</text>
<text text-anchor="start" x="462" y="-65.1" font-family="Helvetica,sans-Serif" font-size="8.00" fill="#718096">inter&#45;stage (s)</text>
<text text-anchor="start" x="193" y="-43.5" font-family="Helvetica,sans-Serif" font-size="10.00">after_gap, production_run_id</text>
<text text-anchor="start" x="462" y="-44.1" font-family="Helvetica,sans-Serif" font-size="8.00" fill="#718096">production context</text>
<polygon fill="#f0fff4" stroke="transparent" points="188,-16.5 188,-35.5 544,-35.5 544,-16.5 188,-16.5"/>
<text text-anchor="start" x="193" y="-24.1" font-family="Helvetica,sans-Serif" font-size="8.00" fill="#718096">~169,000 rows · ~4.3 MB</text>
<polygon fill="none" stroke="#276749" points="187,-16 187,-163 545,-163 545,-16 187,-16"/>
</g>
<!-- clean_pieces&#45;&gt;gold_parquet -->
<g id="edge5" class="edge">
<title>clean_pieces&#45;&gt;gold_parquet</title>
<path fill="none" stroke="#276749" stroke-width="1.5" d="M366,-260.95C366,-231.18 366,-200.52 366,-173.55"/>
<polygon fill="#276749" stroke="#276749" stroke-width="1.5" points="369.5,-173.41 366,-163.41 362.5,-173.41 369.5,-173.41"/>
<text text-anchor="middle" x="410" y="-217.8" font-family="Helvetica,sans-Serif" font-size="9.00" fill="#276749"> &#160;02_silver_to_gold</text>
<text text-anchor="middle" x="410" y="-207.8" font-family="Helvetica,sans-Serif" font-size="9.00" fill="#276749"> &#160;(full regeneration)</text>
</g>
<!-- flyway_schema_history -->
<g id="node6" class="node">
<title>flyway_schema_history</title>
<polygon fill="white" stroke="transparent" points="508,-663.5 508,-705.5 650,-705.5 650,-663.5 508,-663.5"/>
<polygon fill="#a0aec0" stroke="transparent" points="509,-683.5 509,-704.5 649,-704.5 649,-683.5 509,-683.5"/>
<text text-anchor="start" x="514" y="-692.5" font-family="Helvetica,sans-Serif" font-weight="bold" font-size="10.00" fill="white">flyway_schema_history</text>
<text text-anchor="start" x="514" y="-672.1" font-family="Helvetica,sans-Serif" font-size="8.00" fill="#718096">Migration tracking (Flyway)</text>
<polygon fill="none" stroke="#a0aec0" points="508,-663.5 508,-705.5 650,-705.5 650,-663.5 508,-663.5"/>
</g>
</g>
</svg>
